<svg xmlns="http://www.w3.org/2000/svg" width="640" height="427" viewBox="0 0 640 427"><rect width="100%" height="100%" fill="#DDDDDD"/><path fill="#999999" d="m166.87 182.77-18.23 22.32-2.13 2.63q1.79-.89 3.85-1.38t4.44-.49q3.49 0 6.78 1.15t5.8 3.46q2.51 2.32 4.04 5.76t1.53 8.03q0 4.3-1.57 8.06-1.58 3.76-4.42 6.56-2.85 2.81-6.87 4.42-4.01 1.62-8.86 1.62-4.93 0-8.84-1.57-3.91-1.58-6.67-4.4-2.76-2.83-4.23-6.8-1.47-3.98-1.47-8.82 0-4.34 1.77-8.9 1.76-4.57 5.46-9.5l14.66-19.68q.77-1.02 2.23-1.74 1.47-.73 3.38-.73zm-15.85 53.55q2.51 0 4.61-.85t3.61-2.38 2.36-3.59.85-4.48q0-2.64-.81-4.74-.8-2.1-2.29-3.57t-3.57-2.23q-2.08-.77-4.59-.77t-4.55.85-3.48 2.36q-1.45 1.51-2.26 3.57-.8 2.06-.8 4.44 0 2.55.7 4.66.7 2.1 2.08 3.59t3.42 2.32q2.04.82 4.72.82m36.3-15.25h18.7v-20.11q0-2.84.38-6.29zm27.83 0h7.74v6.07q0 .86-.55 1.47-.56.62-1.58.62h-5.61v15h-9.13v-15h-25.93q-1.06 0-1.87-.66t-1.02-1.64l-1.1-5.31 29.11-38.89h9.94zm57.08-7.57q0 8.03-1.72 13.96t-4.76 9.8-7.18 5.76q-4.15 1.89-8.95 1.89t-8.9-1.89-7.12-5.76-4.72-9.8-1.7-13.96q0-8.07 1.7-13.98t4.72-9.78q3.02-3.86 7.12-5.75 4.1-1.9 8.9-1.9t8.95 1.9q4.14 1.89 7.18 5.75 3.04 3.87 4.76 9.78t1.72 13.98m-10.84 0q0-6.67-.97-11.05-.98-4.38-2.62-6.97-1.63-2.59-3.76-3.63-2.12-1.04-4.42-1.04-2.25 0-4.36 1.04-2.1 1.04-3.71 3.63-1.62 2.59-2.58 6.97-.95 4.38-.95 11.05t.95 11.05q.96 4.38 2.58 6.97 1.61 2.59 3.71 3.64 2.11 1.04 4.36 1.04 2.3 0 4.42-1.04 2.13-1.05 3.76-3.64 1.64-2.59 2.62-6.97.97-4.38.97-11.05m78.33 16.66-5.57 5.48-14.4-14.4-14.54 14.49-5.57-5.48 14.54-14.58-13.86-13.86 5.53-5.52 13.85 13.85 13.77-13.77 5.61 5.53-13.81 13.81zm36.81-9.09h18.7v-20.11q0-2.84.38-6.29zm27.83 0h7.74v6.07q0 .86-.55 1.47-.56.62-1.58.62h-5.61v15h-9.13v-15H369.3q-1.06 0-1.87-.66t-1.02-1.64l-1.1-5.31 29.11-38.89h9.94zm35.83 13.38h15.77q1.7 0 2.7.96t1 2.53v6.29H417.5v-3.49q0-1.06.44-2.23.45-1.17 1.43-2.1l18.65-18.7q2.34-2.38 4.19-4.55 1.85-2.16 3.08-4.29 1.23-2.12 1.89-4.31t.66-4.62q0-2.21-.64-3.88-.63-1.68-1.8-2.83t-2.81-1.72q-1.63-.58-3.67-.58-1.87 0-3.47.54-1.59.53-2.82 1.48-1.24.96-2.09 2.23-.85 1.28-1.27 2.81-.72 1.95-1.87 2.59t-3.32.3l-5.52-.98q.64-4.42 2.46-7.75 1.83-3.34 4.57-5.57t6.29-3.36 7.63-1.13q4.25 0 7.78 1.26 3.53 1.25 6.03 3.55 2.51 2.29 3.91 5.52 1.41 3.23 1.41 7.18 0 3.4-1 6.29t-2.68 5.53q-1.68 2.63-3.93 5.1-2.25 2.46-4.72 5.01l-13.85 14.16q1.99-.6 3.97-.92t3.76-.32m27.33-51.68h42.46v4.55q0 2.04-.43 3.3-.42 1.25-.85 2.1l-23.29 47.94q-.72 1.49-2.04 2.53t-3.53 1.04h-7.6l23.75-46.96q.81-1.45 1.6-2.66.78-1.21 1.76-2.32h-29.41q-.98 0-1.7-.72t-.72-1.7z"/></svg>